<svg width="338" height="147" viewBox="0 0 338 147" fill="none" xmlns="http://www.w3.org/2000/svg">
<path d="M194.5 123V132.5H252L258.5 119.5H255L245.758 109.5H207.5L194.5 123Z" fill="#BEBEBE"/>
<path d="M244.678 136.5H202.306L203.765 139H243.218L244.678 136.5Z" fill="#80FF00"/>
<path d="M236.138 143H210.368L211.697 145.5H234.72L236.138 143Z" fill="#80FF00"/>
<path d="M244.5 114H202.5L198.25 118.5L194 123V133H252M244.5 114L252 123M244.5 114L247 110.5M252 123V133M252 123L254.5 118.5M252 133L259 119M201.5 136H245.5L243.5 139.5H203.5L201.5 136ZM209.5 142.5H237L235 146H211.5L209.5 142.5Z" stroke="black"/>
<path d="M202.5 114L207.5 109" stroke="black"/>
<path d="M93.5 123V132.5H151L157.5 119.5L154.5 117L145 109H106L93.5 123Z" fill="#BEBEBE"/>
<path d="M143.678 136.5H101.306L102.765 139H142.218L143.678 136.5Z" fill="#80FF00"/>
<path d="M135.138 143H109.368L110.697 145.5H133.72L135.138 143Z" fill="#80FF00"/>
<path d="M143.5 114H101.5L97.25 118.5L93 123V133H151M143.5 114L151 123M143.5 114L146.5 110M151 123V133M151 123L154.5 116.5M151 133L158 119M100.5 136H144.5L142.5 139.5H102.5L100.5 136ZM108.5 142.5H136L134 146H110.5L108.5 142.5Z" stroke="black"/>
<path d="M101.5 114L106.5 109" stroke="black"/>
<path d="M138 1H246L272 38H337V67L309 119H255L246 109H198L189 119H157L145 109H101L95.5 114L90 119H25L1 85L57 38H97.6364L138 1Z" fill="#30C8EA"/>
<path d="M246 1H138L97.6364 38M246 1L272 38M246 1L215 45M272 38H337M272 38L269.511 42.5M337 38L309 85M337 38V67L309 119M309 85V119M309 85H246M309 119H255L246 109H198L189 119H157L145 109H101L95.5 114L90 119H25L1 85M246 85L215 45M246 85L249.596 78.5M215 45H90M90 45L57 85H1M90 45L97.6364 38M1 85L57 38H97.6364M249.596 78.5L226.5 47.5L249.596 14.5L269.511 42.5M249.596 78.5L269.511 42.5" stroke="black"/>
<path d="M313 91.5V85L334 48.5V56M313 91.5L334 56M313 91.5V98.75M334 56V61.75M313 98.75V106L334 67.5V61.75M313 98.75L334 61.75" stroke="black"/>
<path d="M249.5 15L227 47.5L249.5 78L269 42.5L249.5 15Z" fill="white"/>
<path d="M100.328 60.344V74.12C100.328 74.632 100.44 75 100.664 75.224C100.92 75.448 101.464 75.56 102.296 75.56H105.848V80.12H99.752C97.928 80.12 96.456 79.928 95.336 79.544C94.248 79.16 93.432 78.488 92.888 77.528C92.376 76.536 92.04 75.48 91.88 74.36C91.752 73.24 91.688 71.736 91.688 69.848C91.688 67.928 91.752 66.472 91.88 65.48C92.04 64.488 92.376 63.56 92.888 62.696C93.432 61.832 94.248 61.224 95.336 60.872C96.456 60.52 97.928 60.344 99.752 60.344H100.328ZM107.768 75.56H108.344C109.72 75.56 110.776 75.592 111.512 75.656C112.28 75.688 113.016 75.832 113.72 76.088C114.424 76.312 114.904 76.584 115.16 76.904C115.448 77.224 115.704 77.784 115.928 78.584C116.184 79.352 116.328 80.184 116.36 81.08C116.392 81.976 116.408 83.256 116.408 84.92C116.408 86.584 116.392 87.912 116.36 88.904C116.328 89.864 116.184 90.792 115.928 91.688C115.704 92.552 115.448 93.16 115.16 93.512C114.904 93.864 114.424 94.184 113.72 94.472C113.016 94.728 112.28 94.888 111.512 94.952C110.776 94.984 109.72 95 108.344 95H107.768V75.56ZM92.36 84.296H98.408C98.856 84.296 99.128 84.36 99.224 84.488C99.32 84.616 99.368 84.888 99.368 85.304V89.048C99.368 89.56 99.432 89.928 99.56 90.152C99.72 90.344 100.088 90.44 100.664 90.44H105.848V95H98.792C96.456 95 94.68 94.6 93.464 93.8C92.28 93 91.688 91.608 91.688 89.624V85.304C91.688 84.632 91.912 84.296 92.36 84.296ZM102.248 60.296H108.344C110.68 60.296 112.44 60.696 113.624 61.496C114.84 62.296 115.448 63.688 115.448 65.672V69.992C115.448 70.664 115.224 71 114.776 71H108.728C108.28 71 108.008 70.936 107.912 70.808C107.816 70.68 107.768 70.408 107.768 69.992V66.248C107.768 65.736 107.688 65.384 107.528 65.192C107.4 64.968 107.048 64.856 106.472 64.856H102.248V60.296ZM130.137 71H136.857C140.345 71 142.089 72.712 142.089 76.136V95H136.617C136.105 95 135.689 94.824 135.369 94.472C135.049 94.12 134.889 93.656 134.889 93.08V76.04C134.889 75.528 134.761 75.16 134.505 74.936C134.281 74.712 133.753 74.6 132.921 74.6H130.137V71ZM121.737 60.296H124.665C126.073 60.296 127.129 60.648 127.833 61.352C128.569 62.024 128.937 62.904 128.937 63.992V95H123.465C122.953 95 122.537 94.824 122.217 94.472C121.897 94.12 121.737 93.656 121.737 93.08V60.296ZM152.701 71H158.461C158.653 71 158.749 71.112 158.749 71.336V74.264C158.749 74.488 158.621 74.6 158.365 74.6H156.205C155.437 74.6 154.989 74.744 154.861 75.032C154.733 75.448 154.669 75.912 154.669 76.424V91.304C154.669 92.392 154.301 93.288 153.565 93.992C152.861 94.664 151.805 95 150.397 95H147.469V76.328C147.469 74.44 147.885 73.08 148.717 72.248C149.581 71.416 150.909 71 152.701 71ZM162.425 71.048H165.353C166.761 71.048 167.817 71.4 168.521 72.104C169.257 72.776 169.625 73.656 169.625 74.744V95H164.153C163.641 95 163.225 94.824 162.905 94.472C162.585 94.12 162.425 93.656 162.425 93.08V71.048ZM162.761 60.824C163.113 60.472 164.137 60.296 165.833 60.296C167.529 60.296 168.553 60.472 168.905 60.824C169.257 61.144 169.433 62.104 169.433 63.704C169.433 65.304 169.241 66.28 168.857 66.632C168.505 66.984 167.497 67.16 165.833 67.16C164.169 67.16 163.145 66.984 162.761 66.632C162.409 66.28 162.233 65.304 162.233 63.704C162.233 62.104 162.409 61.144 162.761 60.824ZM186.792 74.6H184.2C183.368 74.6 182.824 74.712 182.568 74.936C182.344 75.16 182.232 75.528 182.232 76.04V90.008C182.232 90.488 182.344 90.84 182.568 91.064C182.824 91.288 183.368 91.4 184.2 91.4H186.792V95H182.136C178.968 95 177.016 94.456 176.28 93.368C175.928 92.856 175.64 92.36 175.416 91.88C175.224 91.4 175.096 90.648 175.032 89.624C174.872 87.768 174.792 85.704 174.792 83.432C174.792 81.16 174.808 79.528 174.84 78.536C174.872 77.512 174.968 76.488 175.128 75.464C175.32 74.408 175.56 73.656 175.848 73.208C176.136 72.728 176.568 72.296 177.144 71.912C177.72 71.528 178.392 71.288 179.16 71.192C179.928 71.064 180.92 71 182.136 71H186.792V74.6ZM188.232 60.296H191.16C192.568 60.296 193.624 60.648 194.328 61.352C195.064 62.024 195.432 62.904 195.432 63.992V91.304C195.432 92.392 195.064 93.288 194.328 93.992C193.624 94.664 192.568 95 191.16 95H188.232V60.296ZM208.06 95H207.964C204.796 95 202.844 94.456 202.108 93.368C201.756 92.856 201.468 92.36 201.244 91.88C201.052 91.4 200.924 90.648 200.86 89.624C200.7 87.768 200.62 85.704 200.62 83.432C200.62 81.16 200.636 79.528 200.668 78.536C200.7 77.512 200.796 76.488 200.956 75.464C201.148 74.408 201.388 73.656 201.676 73.208C201.964 72.728 202.396 72.296 202.972 71.912C203.548 71.528 204.22 71.288 204.988 71.192C205.756 71.064 206.748 71 207.964 71H208.06V95ZM220.828 87.416V89.864C220.828 93.288 219.084 95 215.596 95H209.548V91.4H212.14C212.812 91.4 213.228 91.304 213.388 91.112C213.548 90.888 213.628 90.504 213.628 89.96V88.424C213.628 87.944 213.676 87.672 213.772 87.608C213.9 87.544 213.98 87.512 214.012 87.512C214.044 87.48 214.124 87.464 214.252 87.464C214.412 87.432 214.524 87.416 214.588 87.416C216.668 87.416 218.748 87.416 220.828 87.416ZM209.548 71H215.116C217.324 71 218.828 71.432 219.628 72.296C220.428 73.16 220.828 74.44 220.828 76.136V80.36C220.828 83.24 219.26 84.68 216.124 84.68H209.068V81.08H211.66C212.428 81.08 212.94 80.984 213.196 80.792C213.484 80.6 213.628 80.232 213.628 79.688V76.04C213.628 75.496 213.548 75.128 213.388 74.936C213.228 74.712 212.812 74.6 212.14 74.6H209.548V71Z" fill="white"/>
</svg>
